# This file uses centimeters as units for non-parametric coordinates.

mtllib SnowmanMiddle.mtl
g default
v 0.331414 -0.923880 -0.191342
v 0.191342 -0.923880 -0.331414
v 0.000000 -0.923880 -0.382683
v -0.191342 -0.923880 -0.331414
v -0.331414 -0.923880 -0.191342
v -0.382683 -0.923880 0.000000
v -0.331414 -0.923880 0.191342
v -0.191342 -0.923880 0.331414
v 0.000000 -0.923880 0.382683
v 0.191342 -0.923880 0.331414
v 0.331414 -0.923880 0.191342
v 0.382683 -0.923880 0.000000
v 0.612372 -0.707107 -0.353553
v 0.353553 -0.707107 -0.612372
v 0.000000 -0.707107 -0.707107
v -0.353553 -0.707107 -0.612372
v -0.612372 -0.707107 -0.353553
v -0.707107 -0.707107 0.000000
v -0.612372 -0.707107 0.353553
v -0.353553 -0.707107 0.612372
v 0.000000 -0.707107 0.707107
v 0.353553 -0.707107 0.612372
v 0.612372 -0.707107 0.353553
v 0.707107 -0.707107 0.000000
v 0.800103 -0.382683 -0.461940
v 0.461940 -0.382683 -0.800103
v 0.000000 -0.382683 -0.923880
v -0.461940 -0.382683 -0.800103
v -0.800103 -0.382683 -0.461940
v -0.923880 -0.382683 0.000000
v -0.800103 -0.382683 0.461940
v -0.461940 -0.382683 0.800103
v 0.000000 -0.382683 0.923880
v 0.461940 -0.382683 0.800103
v 0.800103 -0.382683 0.461940
v 0.923880 -0.382683 0.000000
v 0.866025 0.000000 -0.500000
v 0.500000 0.000000 -0.866025
v 0.000000 0.000000 -1.000000
v -0.500000 0.000000 -0.866025
v -0.866025 0.000000 -0.500000
v -1.000000 0.000000 0.000000
v -0.866025 0.000000 0.500000
v -0.500000 0.000000 0.866025
v 0.000000 0.000000 1.000000
v 0.500000 0.000000 0.866025
v 0.866025 0.000000 0.500000
v 1.000000 0.000000 0.000000
v 0.800103 0.382683 -0.461940
v 0.461940 0.382683 -0.800103
v 0.000000 0.382683 -0.923880
v -0.461940 0.382683 -0.800103
v -0.800103 0.382683 -0.461940
v -0.923880 0.382683 0.000000
v -0.800103 0.382683 0.461940
v -0.461940 0.382683 0.800103
v 0.000000 0.382683 0.923880
v 0.461940 0.382683 0.800103
v 0.800103 0.382683 0.461940
v 0.923880 0.382683 0.000000
v 0.612372 0.707107 -0.353553
v 0.353553 0.707107 -0.612372
v 0.000000 0.707107 -0.707107
v -0.353553 0.707107 -0.612372
v -0.612372 0.707107 -0.353553
v -0.707107 0.707107 0.000000
v -0.612372 0.707107 0.353553
v -0.353553 0.707107 0.612372
v 0.000000 0.707107 0.707107
v 0.353553 0.707107 0.612372
v 0.612372 0.707107 0.353553
v 0.707107 0.707107 0.000000
v 0.331414 0.923880 -0.191342
v 0.191342 0.923880 -0.331414
v 0.000000 0.923880 -0.382683
v -0.191342 0.923880 -0.331414
v -0.331414 0.923880 -0.191342
v -0.382683 0.923880 0.000000
v -0.331414 0.923880 0.191342
v -0.191342 0.923880 0.331414
v 0.000000 0.923880 0.382683
v 0.191342 0.923880 0.331414
v 0.331414 0.923880 0.191342
v 0.382683 0.923880 0.000000
v 0.000000 -1.000000 0.000000
v 0.000000 1.000000 0.000000
vt -0.004093 0.158480
vt 0.069000 0.158480
vt 0.142093 0.158480
vt 0.215185 0.158480
vt 0.288278 0.158480
vt 0.361371 0.158480
vt 0.434463 0.158480
vt 0.507556 0.158480
vt 0.580649 0.158480
vt 0.653741 0.158480
vt 0.726834 0.158480
vt 0.799927 0.158480
vt 0.873019 0.158480
vt -0.004093 0.268119
vt 0.069000 0.268119
vt 0.142093 0.268119
vt 0.215185 0.268119
vt 0.288278 0.268119
vt 0.361371 0.268119
vt 0.434463 0.268119
vt 0.507556 0.268119
vt 0.580649 0.268119
vt 0.653741 0.268119
vt 0.726834 0.268119
vt 0.799927 0.268119
vt 0.873019 0.268119
vt -0.004093 0.377758
vt 0.069000 0.377758
vt 0.142093 0.377758
vt 0.215185 0.377758
vt 0.288278 0.377758
vt 0.361371 0.377758
vt 0.434463 0.377758
vt 0.507556 0.377758
vt 0.580649 0.377758
vt 0.653741 0.377758
vt 0.726834 0.377758
vt 0.799927 0.377758
vt 0.873019 0.377758
vt -0.004093 0.487397
vt 0.069000 0.487397
vt 0.142093 0.487397
vt 0.215185 0.487397
vt 0.288278 0.487397
vt 0.361371 0.487397
vt 0.434463 0.487397
vt 0.507556 0.487397
vt 0.580649 0.487397
vt 0.653741 0.487397
vt 0.726834 0.487397
vt 0.799927 0.487397
vt 0.873019 0.487397
vt -0.004093 0.597036
vt 0.069000 0.597036
vt 0.142093 0.597036
vt 0.215185 0.597036
vt 0.288278 0.597036
vt 0.361371 0.597036
vt 0.434463 0.597036
vt 0.507556 0.597036
vt 0.580649 0.597036
vt 0.653741 0.597036
vt 0.726834 0.597036
vt 0.799927 0.597036
vt 0.873019 0.597036
vt -0.004093 0.706675
vt 0.069000 0.706675
vt 0.142093 0.706675
vt 0.215185 0.706675
vt 0.288278 0.706675
vt 0.361371 0.706675
vt 0.434463 0.706675
vt 0.507556 0.706675
vt 0.580649 0.706675
vt 0.653741 0.706675
vt 0.726834 0.706675
vt 0.799927 0.706675
vt 0.873019 0.706675
vt -0.004093 0.816314
vt 0.069000 0.816314
vt 0.142093 0.816314
vt 0.215185 0.816314
vt 0.288278 0.816314
vt 0.361371 0.816314
vt 0.434463 0.816314
vt 0.507556 0.816314
vt 0.580649 0.816314
vt 0.653741 0.816314
vt 0.726834 0.816314
vt 0.799927 0.816314
vt 0.873019 0.816314
vt 0.032454 0.048841
vt 0.105546 0.048841
vt 0.178639 0.048841
vt 0.251732 0.048841
vt 0.324824 0.048841
vt 0.397917 0.048841
vt 0.471010 0.048841
vt 0.544102 0.048841
vt 0.617195 0.048841
vt 0.690288 0.048841
vt 0.763381 0.048841
vt 0.836473 0.048841
vt 0.032454 0.925953
vt 0.105546 0.925953
vt 0.178639 0.925953
vt 0.251732 0.925953
vt 0.324824 0.925953
vt 0.397917 0.925953
vt 0.471010 0.925953
vt 0.544102 0.925953
vt 0.617195 0.925953
vt 0.690288 0.925953
vt 0.763381 0.925953
vt 0.836473 0.925953
vn 0.402273 -0.822407 -0.402273
vn 0.402273 -0.822407 -0.402273
vn 0.402273 -0.822407 -0.402273
vn 0.402273 -0.822407 -0.402273
vn 0.147242 -0.822407 -0.549515
vn 0.147242 -0.822407 -0.549515
vn 0.147242 -0.822407 -0.549515
vn 0.147242 -0.822407 -0.549515
vn -0.147242 -0.822407 -0.549515
vn -0.147242 -0.822407 -0.549515
vn -0.147242 -0.822407 -0.549515
vn -0.147242 -0.822407 -0.549515
vn -0.402273 -0.822407 -0.402273
vn -0.402273 -0.822407 -0.402273
vn -0.402273 -0.822407 -0.402273
vn -0.402273 -0.822407 -0.402273
vn -0.549515 -0.822407 -0.147242
vn -0.549515 -0.822407 -0.147242
vn -0.549515 -0.822407 -0.147242
vn -0.549515 -0.822407 -0.147242
vn -0.549515 -0.822407 0.147242
vn -0.549515 -0.822407 0.147242
vn -0.549515 -0.822407 0.147242
vn -0.549515 -0.822407 0.147242
vn -0.402273 -0.822407 0.402273
vn -0.402273 -0.822407 0.402273
vn -0.402273 -0.822407 0.402273
vn -0.402273 -0.822407 0.402273
vn -0.147242 -0.822407 0.549515
vn -0.147242 -0.822407 0.549515
vn -0.147242 -0.822407 0.549515
vn -0.147242 -0.822407 0.549515
vn 0.147242 -0.822407 0.549515
vn 0.147242 -0.822407 0.549515
vn 0.147242 -0.822407 0.549515
vn 0.147242 -0.822407 0.549515
vn 0.402273 -0.822407 0.402273
vn 0.402273 -0.822407 0.402273
vn 0.402273 -0.822407 0.402273
vn 0.402273 -0.822407 0.402273
vn 0.549515 -0.822407 0.147242
vn 0.549515 -0.822407 0.147242
vn 0.549515 -0.822407 0.147242
vn 0.549515 -0.822407 0.147242
vn 0.549515 -0.822407 -0.147242
vn 0.549515 -0.822407 -0.147242
vn 0.549515 -0.822407 -0.147242
vn 0.549515 -0.822407 -0.147242
vn 0.594112 -0.542275 -0.594112
vn 0.594112 -0.542275 -0.594112
vn 0.594112 -0.542275 -0.594112
vn 0.594112 -0.542275 -0.594112
vn 0.217460 -0.542275 -0.811572
vn 0.217460 -0.542275 -0.811572
vn 0.217460 -0.542275 -0.811572
vn 0.217460 -0.542275 -0.811572
vn -0.217460 -0.542275 -0.811572
vn -0.217460 -0.542275 -0.811572
vn -0.217460 -0.542275 -0.811572
vn -0.217460 -0.542275 -0.811572
vn -0.594112 -0.542275 -0.594112
vn -0.594112 -0.542275 -0.594112
vn -0.594112 -0.542275 -0.594112
vn -0.594112 -0.542275 -0.594112
vn -0.811572 -0.542275 -0.217460
vn -0.811572 -0.542275 -0.217460
vn -0.811572 -0.542275 -0.217460
vn -0.811572 -0.542275 -0.217460
vn -0.811572 -0.542275 0.217460
vn -0.811572 -0.542275 0.217460
vn -0.811572 -0.542275 0.217460
vn -0.811572 -0.542275 0.217460
vn -0.594112 -0.542275 0.594112
vn -0.594112 -0.542275 0.594112
vn -0.594112 -0.542275 0.594112
vn -0.594112 -0.542275 0.594112
vn -0.217460 -0.542275 0.811572
vn -0.217460 -0.542275 0.811572
vn -0.217460 -0.542275 0.811572
vn -0.217460 -0.542275 0.811572
vn 0.217460 -0.542275 0.811572
vn 0.217460 -0.542275 0.811572
vn 0.217460 -0.542275 0.811572
vn 0.217460 -0.542275 0.811572
vn 0.594112 -0.542275 0.594112
vn 0.594112 -0.542275 0.594112
vn 0.594112 -0.542275 0.594112
vn 0.594112 -0.542275 0.594112
vn 0.811572 -0.542275 0.217460
vn 0.811572 -0.542275 0.217460
vn 0.811572 -0.542275 0.217460
vn 0.811572 -0.542275 0.217460
vn 0.811572 -0.542275 -0.217460
vn 0.811572 -0.542275 -0.217460
vn 0.811572 -0.542275 -0.217460
vn 0.811572 -0.542275 -0.217460
vn 0.694406 -0.188684 -0.694406
vn 0.694406 -0.188684 -0.694406
vn 0.694406 -0.188684 -0.694406
vn 0.694406 -0.188684 -0.694406
vn 0.254170 -0.188684 -0.948576
vn 0.254170 -0.188684 -0.948576
vn 0.254170 -0.188684 -0.948576
vn 0.254170 -0.188684 -0.948576
vn -0.254170 -0.188684 -0.948576
vn -0.254170 -0.188684 -0.948576
vn -0.254170 -0.188684 -0.948576
vn -0.254170 -0.188684 -0.948576
vn -0.694406 -0.188684 -0.694406
vn -0.694406 -0.188684 -0.694406
vn -0.694406 -0.188684 -0.694406
vn -0.694406 -0.188684 -0.694406
vn -0.948576 -0.188684 -0.254170
vn -0.948576 -0.188684 -0.254170
vn -0.948576 -0.188684 -0.254170
vn -0.948576 -0.188684 -0.254170
vn -0.948576 -0.188684 0.254170
vn -0.948576 -0.188684 0.254170
vn -0.948576 -0.188684 0.254170
vn -0.948576 -0.188684 0.254170
vn -0.694406 -0.188684 0.694406
vn -0.694406 -0.188684 0.694406
vn -0.694406 -0.188684 0.694406
vn -0.694406 -0.188684 0.694406
vn -0.254170 -0.188684 0.948576
vn -0.254170 -0.188684 0.948576
vn -0.254170 -0.188684 0.948576
vn -0.254170 -0.188684 0.948576
vn 0.254170 -0.188684 0.948576
vn 0.254170 -0.188684 0.948576
vn 0.254170 -0.188684 0.948576
vn 0.254170 -0.188684 0.948576
vn 0.694406 -0.188684 0.694406
vn 0.694406 -0.188684 0.694406
vn 0.694406 -0.188684 0.694406
vn 0.694406 -0.188684 0.694406
vn 0.948576 -0.188684 0.254170
vn 0.948576 -0.188684 0.254170
vn 0.948576 -0.188684 0.254170
vn 0.948576 -0.188684 0.254170
vn 0.948576 -0.188684 -0.254170
vn 0.948576 -0.188684 -0.254170
vn 0.948576 -0.188684 -0.254170
vn 0.948576 -0.188684 -0.254170
vn 0.694406 0.188684 -0.694406
vn 0.694406 0.188684 -0.694406
vn 0.694406 0.188684 -0.694406
vn 0.694406 0.188684 -0.694406
vn 0.254170 0.188683 -0.948576
vn 0.254170 0.188683 -0.948576
vn 0.254170 0.188684 -0.948576
vn 0.254170 0.188684 -0.948576
vn -0.254170 0.188683 -0.948576
vn -0.254170 0.188683 -0.948576
vn -0.254170 0.188683 -0.948576
vn -0.254170 0.188683 -0.948576
vn -0.694406 0.188684 -0.694406
vn -0.694406 0.188684 -0.694406
vn -0.694406 0.188684 -0.694406
vn -0.694406 0.188684 -0.694406
vn -0.948576 0.188684 -0.254170
vn -0.948576 0.188684 -0.254170
vn -0.948576 0.188684 -0.254170
vn -0.948576 0.188684 -0.254170
vn -0.948576 0.188684 0.254170
vn -0.948576 0.188684 0.254170
vn -0.948576 0.188684 0.254170
vn -0.948576 0.188684 0.254170
vn -0.694406 0.188684 0.694406
vn -0.694406 0.188684 0.694406
vn -0.694406 0.188684 0.694406
vn -0.694406 0.188684 0.694406
vn -0.254170 0.188683 0.948576
vn -0.254170 0.188683 0.948576
vn -0.254170 0.188684 0.948576
vn -0.254170 0.188684 0.948576
vn 0.254170 0.188683 0.948576
vn 0.254170 0.188683 0.948576
vn 0.254170 0.188683 0.948576
vn 0.254170 0.188683 0.948576
vn 0.694406 0.188684 0.694406
vn 0.694406 0.188684 0.694406
vn 0.694406 0.188684 0.694406
vn 0.694406 0.188684 0.694406
vn 0.948576 0.188684 0.254170
vn 0.948576 0.188684 0.254170
vn 0.948576 0.188684 0.254170
vn 0.948576 0.188684 0.254170
vn 0.948576 0.188684 -0.254170
vn 0.948576 0.188684 -0.254170
vn 0.948576 0.188684 -0.254170
vn 0.948576 0.188684 -0.254170
vn 0.594112 0.542275 -0.594112
vn 0.594112 0.542275 -0.594112
vn 0.594112 0.542275 -0.594112
vn 0.594112 0.542275 -0.594112
vn 0.217460 0.542275 -0.811572
vn 0.217460 0.542275 -0.811572
vn 0.217460 0.542275 -0.811572
vn 0.217460 0.542275 -0.811572
vn -0.217460 0.542275 -0.811572
vn -0.217460 0.542275 -0.811572
vn -0.217460 0.542275 -0.811572
vn -0.217460 0.542275 -0.811572
vn -0.594112 0.542275 -0.594112
vn -0.594112 0.542275 -0.594112
vn -0.594112 0.542275 -0.594112
vn -0.594112 0.542275 -0.594112
vn -0.811572 0.542275 -0.217460
vn -0.811572 0.542275 -0.217460
vn -0.811572 0.542275 -0.217460
vn -0.811572 0.542275 -0.217460
vn -0.811572 0.542275 0.217460
vn -0.811572 0.542275 0.217460
vn -0.811572 0.542275 0.217460
vn -0.811572 0.542275 0.217460
vn -0.594112 0.542275 0.594112
vn -0.594112 0.542275 0.594112
vn -0.594112 0.542275 0.594112
vn -0.594112 0.542275 0.594112
vn -0.217460 0.542275 0.811572
vn -0.217460 0.542275 0.811572
vn -0.217460 0.542275 0.811572
vn -0.217460 0.542275 0.811572
vn 0.217460 0.542275 0.811572
vn 0.217460 0.542275 0.811572
vn 0.217460 0.542275 0.811572
vn 0.217460 0.542275 0.811572
vn 0.594112 0.542275 0.594112
vn 0.594112 0.542275 0.594112
vn 0.594112 0.542275 0.594112
vn 0.594112 0.542275 0.594112
vn 0.811572 0.542275 0.217460
vn 0.811572 0.542275 0.217460
vn 0.811572 0.542275 0.217460
vn 0.811572 0.542275 0.217460
vn 0.811572 0.542275 -0.217460
vn 0.811572 0.542275 -0.217460
vn 0.811572 0.542275 -0.217460
vn 0.811572 0.542275 -0.217460
vn 0.402273 0.822407 -0.402273
vn 0.402273 0.822407 -0.402273
vn 0.402273 0.822407 -0.402273
vn 0.402273 0.822407 -0.402273
vn 0.147242 0.822407 -0.549515
vn 0.147242 0.822407 -0.549515
vn 0.147242 0.822407 -0.549515
vn 0.147242 0.822407 -0.549515
vn -0.147242 0.822407 -0.549515
vn -0.147242 0.822407 -0.549515
vn -0.147242 0.822407 -0.549515
vn -0.147242 0.822407 -0.549515
vn -0.402273 0.822407 -0.402273
vn -0.402273 0.822407 -0.402273
vn -0.402273 0.822407 -0.402273
vn -0.402273 0.822407 -0.402273
vn -0.549515 0.822407 -0.147242
vn -0.549515 0.822407 -0.147242
vn -0.549515 0.822407 -0.147242
vn -0.549515 0.822407 -0.147242
vn -0.549515 0.822407 0.147242
vn -0.549515 0.822407 0.147242
vn -0.549515 0.822407 0.147242
vn -0.549515 0.822407 0.147242
vn -0.402273 0.822407 0.402273
vn -0.402273 0.822407 0.402273
vn -0.402273 0.822407 0.402273
vn -0.402273 0.822407 0.402273
vn -0.147242 0.822407 0.549515
vn -0.147242 0.822407 0.549515
vn -0.147242 0.822407 0.549515
vn -0.147242 0.822407 0.549515
vn 0.147242 0.822407 0.549515
vn 0.147242 0.822407 0.549515
vn 0.147242 0.822407 0.549515
vn 0.147242 0.822407 0.549515
vn 0.402273 0.822407 0.402273
vn 0.402273 0.822407 0.402273
vn 0.402273 0.822407 0.402273
vn 0.402273 0.822407 0.402273
vn 0.549515 0.822407 0.147242
vn 0.549515 0.822407 0.147242
vn 0.549515 0.822407 0.147242
vn 0.549515 0.822407 0.147242
vn 0.549515 0.822407 -0.147242
vn 0.549515 0.822407 -0.147242
vn 0.549515 0.822407 -0.147242
vn 0.549515 0.822407 -0.147242
vn 0.142621 -0.979448 -0.142621
vn 0.142621 -0.979448 -0.142621
vn 0.142621 -0.979448 -0.142621
vn 0.052203 -0.979448 -0.194824
vn 0.052203 -0.979448 -0.194824
vn 0.052203 -0.979448 -0.194824
vn -0.052203 -0.979448 -0.194824
vn -0.052203 -0.979448 -0.194824
vn -0.052203 -0.979448 -0.194824
vn -0.142621 -0.979448 -0.142621
vn -0.142621 -0.979448 -0.142621
vn -0.142621 -0.979448 -0.142621
vn -0.194824 -0.979448 -0.052204
vn -0.194824 -0.979448 -0.052204
vn -0.194824 -0.979448 -0.052204
vn -0.194824 -0.979448 0.052203
vn -0.194824 -0.979448 0.052203
vn -0.194824 -0.979448 0.052203
vn -0.142621 -0.979448 0.142621
vn -0.142621 -0.979448 0.142621
vn -0.142621 -0.979448 0.142621
vn -0.052203 -0.979448 0.194824
vn -0.052203 -0.979448 0.194824
vn -0.052203 -0.979448 0.194824
vn 0.052203 -0.979448 0.194824
vn 0.052203 -0.979448 0.194824
vn 0.052203 -0.979448 0.194824
vn 0.142621 -0.979448 0.142621
vn 0.142621 -0.979448 0.142621
vn 0.142621 -0.979448 0.142621
vn 0.194824 -0.979448 0.052204
vn 0.194824 -0.979448 0.052204
vn 0.194824 -0.979448 0.052204
vn 0.194824 -0.979448 -0.052203
vn 0.194824 -0.979448 -0.052203
vn 0.194824 -0.979448 -0.052203
vn 0.142621 0.979448 -0.142621
vn 0.142621 0.979448 -0.142621
vn 0.142621 0.979448 -0.142621
vn 0.052203 0.979448 -0.194824
vn 0.052203 0.979448 -0.194824
vn 0.052203 0.979448 -0.194824
vn -0.052203 0.979448 -0.194824
vn -0.052203 0.979448 -0.194824
vn -0.052203 0.979448 -0.194824
vn -0.142621 0.979448 -0.142621
vn -0.142621 0.979448 -0.142621
vn -0.142621 0.979448 -0.142621
vn -0.194824 0.979448 -0.052203
vn -0.194824 0.979448 -0.052203
vn -0.194824 0.979448 -0.052203
vn -0.194824 0.979448 0.052204
vn -0.194824 0.979448 0.052204
vn -0.194824 0.979448 0.052204
vn -0.142621 0.979448 0.142621
vn -0.142621 0.979448 0.142621
vn -0.142621 0.979448 0.142621
vn -0.052203 0.979448 0.194824
vn -0.052203 0.979448 0.194824
vn -0.052203 0.979448 0.194824
vn 0.052203 0.979448 0.194824
vn 0.052203 0.979448 0.194824
vn 0.052203 0.979448 0.194824
vn 0.142621 0.979448 0.142621
vn 0.142621 0.979448 0.142621
vn 0.142621 0.979448 0.142621
vn 0.194824 0.979448 0.052203
vn 0.194824 0.979448 0.052203
vn 0.194824 0.979448 0.052203
vn 0.194824 0.979448 -0.052204
vn 0.194824 0.979448 -0.052204
vn 0.194824 0.979448 -0.052204
s off
g pSphere1
usemtl blinn1SG
f 1/1/1 2/2/2 14/15/3 13/14/4
f 2/2/5 3/3/6 15/16/7 14/15/8
f 3/3/9 4/4/10 16/17/11 15/16/12
f 4/4/13 5/5/14 17/18/15 16/17/16
f 5/5/17 6/6/18 18/19/19 17/18/20
f 6/6/21 7/7/22 19/20/23 18/19/24
f 7/7/25 8/8/26 20/21/27 19/20/28
f 8/8/29 9/9/30 21/22/31 20/21/32
f 9/9/33 10/10/34 22/23/35 21/22/36
f 10/10/37 11/11/38 23/24/39 22/23/40
f 11/11/41 12/12/42 24/25/43 23/24/44
f 12/12/45 1/13/46 13/26/47 24/25/48
f 13/14/49 14/15/50 26/28/51 25/27/52
f 14/15/53 15/16/54 27/29/55 26/28/56
f 15/16/57 16/17/58 28/30/59 27/29/60
f 16/17/61 17/18/62 29/31/63 28/30/64
f 17/18/65 18/19/66 30/32/67 29/31/68
f 18/19/69 19/20/70 31/33/71 30/32/72
f 19/20/73 20/21/74 32/34/75 31/33/76
f 20/21/77 21/22/78 33/35/79 32/34/80
f 21/22/81 22/23/82 34/36/83 33/35/84
f 22/23/85 23/24/86 35/37/87 34/36/88
f 23/24/89 24/25/90 36/38/91 35/37/92
f 24/25/93 13/26/94 25/39/95 36/38/96
f 25/27/97 26/28/98 38/41/99 37/40/100
f 26/28/101 27/29/102 39/42/103 38/41/104
f 27/29/105 28/30/106 40/43/107 39/42/108
f 28/30/109 29/31/110 41/44/111 40/43/112
f 29/31/113 30/32/114 42/45/115 41/44/116
f 30/32/117 31/33/118 43/46/119 42/45/120
f 31/33/121 32/34/122 44/47/123 43/46/124
f 32/34/125 33/35/126 45/48/127 44/47/128
f 33/35/129 34/36/130 46/49/131 45/48/132
f 34/36/133 35/37/134 47/50/135 46/49/136
f 35/37/137 36/38/138 48/51/139 47/50/140
f 36/38/141 25/39/142 37/52/143 48/51/144
f 37/40/145 38/41/146 50/54/147 49/53/148
f 38/41/149 39/42/150 51/55/151 50/54/152
f 39/42/153 40/43/154 52/56/155 51/55/156
f 40/43/157 41/44/158 53/57/159 52/56/160
f 41/44/161 42/45/162 54/58/163 53/57/164
f 42/45/165 43/46/166 55/59/167 54/58/168
f 43/46/169 44/47/170 56/60/171 55/59/172
f 44/47/173 45/48/174 57/61/175 56/60/176
f 45/48/177 46/49/178 58/62/179 57/61/180
f 46/49/181 47/50/182 59/63/183 58/62/184
f 47/50/185 48/51/186 60/64/187 59/63/188
f 48/51/189 37/52/190 49/65/191 60/64/192
f 49/53/193 50/54/194 62/67/195 61/66/196
f 50/54/197 51/55/198 63/68/199 62/67/200
f 51/55/201 52/56/202 64/69/203 63/68/204
f 52/56/205 53/57/206 65/70/207 64/69/208
f 53/57/209 54/58/210 66/71/211 65/70/212
f 54/58/213 55/59/214 67/72/215 66/71/216
f 55/59/217 56/60/218 68/73/219 67/72/220
f 56/60/221 57/61/222 69/74/223 68/73/224
f 57/61/225 58/62/226 70/75/227 69/74/228
f 58/62/229 59/63/230 71/76/231 70/75/232
f 59/63/233 60/64/234 72/77/235 71/76/236
f 60/64/237 49/65/238 61/78/239 72/77/240
f 61/66/241 62/67/242 74/80/243 73/79/244
f 62/67/245 63/68/246 75/81/247 74/80/248
f 63/68/249 64/69/250 76/82/251 75/81/252
f 64/69/253 65/70/254 77/83/255 76/82/256
f 65/70/257 66/71/258 78/84/259 77/83/260
f 66/71/261 67/72/262 79/85/263 78/84/264
f 67/72/265 68/73/266 80/86/267 79/85/268
f 68/73/269 69/74/270 81/87/271 80/86/272
f 69/74/273 70/75/274 82/88/275 81/87/276
f 70/75/277 71/76/278 83/89/279 82/88/280
f 71/76/281 72/77/282 84/90/283 83/89/284
f 72/77/285 61/78/286 73/91/287 84/90/288
f 2/2/289 1/1/290 85/92/291
f 3/3/292 2/2/293 85/93/294
f 4/4/295 3/3/296 85/94/297
f 5/5/298 4/4/299 85/95/300
f 6/6/301 5/5/302 85/96/303
f 7/7/304 6/6/305 85/97/306
f 8/8/307 7/7/308 85/98/309
f 9/9/310 8/8/311 85/99/312
f 10/10/313 9/9/314 85/100/315
f 11/11/316 10/10/317 85/101/318
f 12/12/319 11/11/320 85/102/321
f 1/13/322 12/12/323 85/103/324
f 73/79/325 74/80/326 86/104/327
f 74/80/328 75/81/329 86/105/330
f 75/81/331 76/82/332 86/106/333
f 76/82/334 77/83/335 86/107/336
f 77/83/337 78/84/338 86/108/339
f 78/84/340 79/85/341 86/109/342
f 79/85/343 80/86/344 86/110/345
f 80/86/346 81/87/347 86/111/348
f 81/87/349 82/88/350 86/112/351
f 82/88/352 83/89/353 86/113/354
f 83/89/355 84/90/356 86/114/357
f 84/90/358 73/91/359 86/115/360
